<svg width="125" height="19" viewBox="0 0 125 19" fill="none" xmlns="http://www.w3.org/2000/svg">
<path d="M16.5479 18.5556V1.83594H19.8918V18.5556H16.5479Z" fill="#272727"/>
<path d="M78.3809 18.5556V1.83594H81.7248V18.5556H78.3809Z" fill="#272727"/>
<path d="M33.2144 18.5556H29.978L23.2363 1.83594H27.2882L31.6431 13.5295L36.0024 1.83594H39.956L33.2144 18.5556Z" fill="#272727"/>
<path d="M69.8321 5.22786V18.5556H66.0584V5.22786H60.8262V1.83594H75.0379V5.22786H69.8321Z" fill="#272727"/>
<path d="M97.7821 18.5556L89.5794 7.91502V18.5556H85.9053V1.83594H89.3408L97.2746 12.125V1.83594H100.953V18.5556H97.7821Z" fill="#272727"/>
<path d="M111.765 18.5556C106.845 18.5556 103.461 15.0228 103.461 10.2438V10.1967C103.453 9.08691 103.663 7.98673 104.077 6.96126C104.492 5.93578 105.103 5.00584 105.875 4.22648C106.647 3.44712 107.564 2.83418 108.571 2.42389C109.578 2.0136 110.656 1.81429 111.74 1.8378C114.585 1.8378 116.3 2.62147 117.944 4.05601L115.756 6.75807C114.539 5.71749 113.455 5.118 111.627 5.118C109.117 5.118 107.096 7.40042 107.096 10.1496V10.1967C107.096 13.1514 109.079 15.3354 111.878 15.3354C113.041 15.3719 114.185 15.0333 115.149 14.3676V12.0552H111.652V8.96343H118.509V15.982C116.639 17.6464 114.243 18.5608 111.765 18.5556Z" fill="#272727"/>
<path d="M121.853 1.96627V12.9595H124.921V1.96627H121.853Z" fill="#272727"/>
<path d="M121.853 15.2656V18.8687H124.921V15.2656H121.853Z" fill="#272727"/>
<path d="M2.23044 1.83748L0.664062 1.86319V18.5556H3.84339V15.4526C5.96011 15.3284 9.53737 14.8148 11.5991 12.7989C12.1116 12.309 12.5186 11.7174 12.7947 11.0613C13.0708 10.4051 13.21 9.69836 13.2035 8.98531C13.2115 8.19938 13.0614 7.41998 12.7623 6.69451C12.4632 5.96904 12.0213 5.31259 11.4636 4.76507C8.51711 1.82463 2.86546 1.82464 2.23044 1.83748Z" fill="#272727"/>
<path d="M59.7645 7.06335L55.8479 8.40738L60.0186 11.8852L54.6101 11.0954L56.5361 16.7071L51.5248 12.8967L49.5665 18.8686L47.6082 12.8967L42.597 16.7071L44.5276 11.0954L39.1191 11.8852L43.2852 8.40738L39.3732 7.06335L43.8717 5.83941L41.9227 3.53008L45.7053 3.97347L45.5437 1.49325L48.2133 3.01741L49.5665 0.837402L50.9244 3.01741L53.5894 1.49325L53.4277 3.97347L57.215 3.53008L55.266 5.83941L59.7645 7.06335Z" fill="#5988FF"/>
</svg>
