<svg width="335" height="60" viewBox="0 0 335 60" fill="none" xmlns="http://www.w3.org/2000/svg">
<rect width="335" height="60" rx="30" fill="url(#paint0_linear_312_291)"/>
<path d="M167.922 21.6211H165.654V37.6172H167.922V21.6211ZM154.439 32.1152L154.65 33.9434C157.586 33.9258 161.286 33.8643 164.688 33.3105L164.582 31.6406C163.905 31.7197 163.211 31.79 162.508 31.8428V24.8906H163.932V23.0977H154.879V24.8906H156.285V32.0977C155.635 32.1064 155.02 32.1152 154.439 32.1152ZM158.465 32.0537V24.8906H160.328V31.9834C159.704 32.0186 159.08 32.0361 158.465 32.0537ZM184.674 33.9258H178.434V30.9727H183.039V22.6406H180.807V25.1191H173.828V22.6406H171.578V30.9727H176.201V33.9258H170.031V35.7539H184.674V33.9258ZM173.828 29.1797V26.9121H180.807V29.1797H173.828ZM194.219 22.7285H186.467V30.5859H187.838C191.257 30.6035 193.296 30.5508 195.572 30.1816L195.344 28.4238C193.322 28.7578 191.538 28.793 188.717 28.793V27.5098H193.744V25.7695H188.717V24.5215H194.219V22.7285ZM188.031 34.5762C188.031 36.5098 190.114 37.626 193.533 37.6172C196.917 37.626 199.053 36.5098 199.07 34.5762C199.053 32.6602 196.917 31.5439 193.533 31.5352C190.114 31.5439 188.031 32.6602 188.031 34.5762ZM190.264 34.5762C190.264 33.7236 191.389 33.2666 193.533 33.2754C195.651 33.2666 196.82 33.7236 196.82 34.5762C196.82 35.4639 195.651 35.9121 193.533 35.9121C191.389 35.9121 190.264 35.4639 190.264 34.5762ZM196.732 31.3242H198.982V21.6387H196.732V31.3242ZM211.516 25.2422V22.8516H209.248V25.2422C209.239 28.3447 207.877 31.4121 205.082 32.5898L206.436 34.4531C208.387 33.5654 209.696 31.8252 210.417 29.6631C211.146 31.6406 212.412 33.2402 214.24 34.0664L215.559 32.2734C212.843 31.1221 211.507 28.1777 211.516 25.2422ZM216.42 37.6523H218.688V21.6211H216.42V37.6523ZM229.938 22.5527H221.219V24.3457H224.488C224.462 26.3408 223.249 28.3975 220.604 29.25L221.799 30.9727C223.653 30.3662 224.937 29.1182 225.648 27.5625C226.343 28.9863 227.564 30.1289 229.34 30.709L230.482 28.9688C227.89 28.1426 226.765 26.2178 226.756 24.3457H229.938V22.5527ZM222.766 33.7324H231.291V37.6172H233.541V31.957H222.766V33.7324ZM231.291 31.2715H233.541V27.3691H235.703V25.5059H233.541V21.6211H231.291V31.2715ZM249.027 21.6211H246.812V37.6172H249.027V29.7246H251.383V27.8789H249.027V21.6211ZM236.318 25.8047H245.723V24.0117H242.189V21.8672H239.939V24.0117H236.318V25.8047ZM236.969 30.5156C236.96 32.748 238.7 34.3213 241.064 34.3301C243.394 34.3213 245.143 32.748 245.143 30.5156C245.143 28.2832 243.394 26.6924 241.064 26.7012C238.7 26.6924 236.96 28.2832 236.969 30.5156ZM239.113 30.5156C239.113 29.2852 239.931 28.5293 241.064 28.5117C242.181 28.5293 242.998 29.2852 242.998 30.5156C242.998 31.7549 242.181 32.4932 241.064 32.4844C239.931 32.4932 239.113 31.7549 239.113 30.5156ZM265.41 21.6211H263.143V37.6172H265.41V21.6211ZM252.016 33.082L253.193 34.875C258.906 32.1768 260.603 28.1426 260.611 23.291H252.877V25.0488H258.326C257.966 28.5996 256.146 31.1309 252.016 33.082Z" fill="white"/>
<rect x="5" y="5" width="100" height="50" rx="25" fill="white"/>
<path d="M69 30.5L62 37.5" stroke="#5988FF" stroke-width="5"/>
<path d="M40 30.5H69L61.5 23" stroke="#5988FF" stroke-width="5" stroke-linejoin="round"/>
<defs>
<linearGradient id="paint0_linear_312_291" x1="-39" y1="9.49998" x2="354" y2="45.5" gradientUnits="userSpaceOnUse">
<stop stop-color="#5988FF"/>
<stop offset="1" stop-color="#26CBFF"/>
<stop offset="1" stop-color="#26CBFF"/>
</linearGradient>
</defs>
</svg>
